<svg height="191" viewBox="0 0 101 191" width="101" xmlns="http://www.w3.org/2000/svg" xmlns:xlink="http://www.w3.org/1999/xlink"><mask id="a" fill="#fff"><path d="m0 0h110v200h-110z" fill="#fff" fill-rule="evenodd"/></mask><g fill="none" fill-rule="evenodd" mask="url(#a)" transform="translate(-9 -4)"><g fill="#d0dce9" fill-rule="nonzero" transform="matrix(.9961947 -.08715574 .08715574 .9961947 6.000005 9.458706)"><path d="m11.4545455 187h97.0909095c6 0 10.636363-4.878261 10.636363-10.569565v-143.3666669c0-5.9623188-4.909091-10.5695652-10.636363-10.5695652h-16.0909095v-6.5043478c0-1.626087-1.0909091-2.710145-2.7272728-2.710145h-13.9090909c-1.3636363-7.58840575-7.9090909-13.2797101-15.8181818-13.2797101s-14.4545455 5.69130435-15.8181818 13.2797101h-13.9090909c-1.6363637 0-2.7272728 1.084058-2.7272728 2.710145v6.5043478h-16.090909c-6.00000005 0-10.63636368 4.8782609-10.63636368 10.5695652v143.3666669c0 5.691304 4.90909091 10.569565 10.63636368 10.569565zm21.5454545-168.3h13.6363636c1.6363637 0 2.7272728-1.084058 2.7272728-2.7101449 0-5.9623189 4.9090909-10.56956524 10.6363636-10.56956524s10.6363636 4.60724634 10.6363636 10.56956524c0 1.6260869 1.0909091 2.7101449 2.7272728 2.7101449h13.6363636v11.9246377h-54zm-26.72727273 14.3637681c0-2.9811594 2.45454546-5.1492753 5.18181823-5.1492753h16.090909v5.1492753c0 1.626087 1.0909091 2.7101449 2.7272728 2.7101449h59.4545454c1.6363637 0 2.7272728-1.0840579 2.7272728-2.7101449v-5.1492753h16.0909095c3 0 5.181818 2.4391304 5.181818 5.1492753v143.3666669c0 2.981159-2.454546 5.149275-5.181818 5.149275h-97.0909095c-3.00000005 0-5.18181823-2.43913-5.18181823-5.149275z"/><path d="m16.6363636 173.991304h86.4545454c1.636364 0 2.727273-1.084058 2.727273-2.710145v-124.9376807c0-1.626087-1.090909-2.710145-2.727273-2.710145h-86.4545454c-1.6363636 0-2.7272727 1.084058-2.7272727 2.710145v124.9376807c0 1.355073 1.3636364 2.710145 2.7272727 2.710145zm2.7272728-124.9376808h80.9999996v119.5173908h-80.9999996z"/><path d="m58.9090909 66.9405797h19.6363636c1.6363637 0 2.7272728-1.084058 2.7272728-2.7101449 0-1.626087-1.0909091-2.7101449-2.7272728-2.7101449h-19.6363636c-1.6363636 0-2.7272727 1.0840579-2.7272727 2.7101449 0 1.6260869 1.3636363 2.7101449 2.7272727 2.7101449zm31.0909091 5.6913044h-31.0909091c-1.6363636 0-2.7272727 1.0840579-2.7272727 2.7101449 0 1.6260869 1.0909091 2.7101449 2.7272727 2.7101449h31.0909091c1.6363636 0 2.7272727-1.084058 2.7272727-2.7101449 0-1.626087-1.0909091-2.7101449-2.7272727-2.7101449zm-44.1818182 50.6797099h-15.8181818c-1.6363636 0-2.7272727 1.084058-2.7272727 2.710145v15.718841c0 1.626087 1.0909091 2.710145 2.7272727 2.710145h15.8181818c1.6363637 0 2.7272727-1.084058 2.7272727-2.710145v-15.718841c0-1.355072-1.090909-2.710145-2.7272727-2.710145zm-2.7272727 15.989855h-10.3636364v-10.29855h10.3636364zm15.8181818-8.130435h19.6363636c1.6363637 0 2.7272728-1.084057 2.7272728-2.710144s-1.0909091-2.710145-2.7272728-2.710145h-19.6363636c-1.6363636 0-2.7272727 1.084058-2.7272727 2.710145s1.3636363 2.710144 2.7272727 2.710144zm31.0909091 5.691305h-31.0909091c-1.6363636 0-2.7272727 1.084058-2.7272727 2.710145s1.0909091 2.710145 2.7272727 2.710145h31.0909091c1.6363636 0 2.7272727-1.084058 2.7272727-2.710145s-1.0909091-2.710145-2.7272727-2.710145zm-44.1818182-45.5304349h-15.8181818c-1.6363636 0-2.7272727 1.0840579-2.7272727 2.7101449v15.718841c0 1.626087 1.0909091 2.710144 2.7272727 2.710144h15.8181818c1.6363637 0 2.7272727-1.084057 2.7272727-2.710144v-15.718841c0-1.3550725-1.090909-2.7101449-2.7272727-2.7101449zm-2.7272727 15.7188409h-10.3636364v-10.2985511h10.3636364zm15.8181818-7.8594207h19.6363636c1.6363637 0 2.7272728-1.0840579 2.7272728-2.7101449 0-1.6260869-1.0909091-2.7101449-2.7272728-2.7101449h-19.6363636c-1.6363636 0-2.7272727 1.084058-2.7272727 2.7101449 0 1.626087 1.3636363 2.7101449 2.7272727 2.7101449zm31.0909091 5.6913047h-31.0909091c-1.6363636 0-2.7272727 1.084058-2.7272727 2.710145s1.0909091 2.710145 2.7272727 2.710145h31.0909091c1.6363636 0 2.7272727-1.084058 2.7272727-2.710145s-1.0909091-2.710145-2.7272727-2.710145zm-43.0909091-42.5492757-10.0909091 10.0275363-4.6363636-4.6072464c-1.0909091-1.084058-2.7272727-1.084058-3.8181818 0s-1.0909091 2.7101449 0 3.7942029l6.5454545 6.5043478c1.0909091 1.084058 2.7272727 1.084058 3.8181818 0l12-11.9246377c1.0909091-1.0840579 1.0909091-2.7101449 0-3.7942029-1.0909091-1.0840579-2.7272727-1.0840579-3.8181818 0z"/></g></g></svg>